<svg id="bundesliga" xmlns="http://www.w3.org/2000/svg" width="221.315" height="76.609" viewBox="0 0 221.315 76.609">
  <path id="Trazado_17" data-name="Trazado 17" d="M24.992-261.845a11.375,11.375,0,0,0-6.08,6.263c-.79,1.946-.912,6.445-.912,31.008,0,26.631.122,28.941,1.155,31.191a11.375,11.375,0,0,0,6.262,6.08c2.006.79,13.5.912,103.24.912s101.233-.122,103.24-.912a11.375,11.375,0,0,0,6.262-6.08c1.034-2.25,1.155-4.5,1.155-31.312s-.122-29.063-1.155-31.312a11.375,11.375,0,0,0-6.262-6.08c-2.006-.79-13.5-.912-103.361-.912C31.559-263,27.3-262.939,24.992-261.845Zm208,2.25a16.579,16.579,0,0,1,2.918,2.918c1.277,1.642,1.277,2.31,1.277,31.981s0,30.34-1.277,31.981a16.572,16.572,0,0,1-2.918,2.918l-1.642,1.277H25.965L24.323-189.8a16.573,16.573,0,0,1-2.918-2.918c-1.216-1.642-1.277-2.493-1.459-30.34-.122-15.808,0-29.549.182-30.644a10.52,10.52,0,0,1,5.472-6.627c1.52-.669,19.943-.79,103.787-.669C231.289-260.872,231.35-260.872,232.992-259.6Z" transform="translate(-18 263)"/>
  <path id="Trazado_18" data-name="Trazado 18" d="M346.517-249.3c-3.283.851-3.83,1.642-3.83,5.594,0,4.317.912,5.107,6.323,5.594,3.891.365,4.986,1.034,4.438,2.493-.547,1.338-5.168,1.338-5.654.061-.243-.608-1.216-.912-2.979-.912H342.2l.547,2.25c.73,3.4,1.824,3.952,7.9,3.709,6.688-.243,7.843-1.034,7.843-5.594a11.73,11.73,0,0,0-.486-3.83c-.669-1.094-3.526-2.006-6.2-2.006a13.587,13.587,0,0,1-3.283-.365c-1.52-.608-1.155-2.614.486-3.04,1.7-.426,4.013.182,4.013,1.034,0,.3,1.094.547,2.432.547,2.25,0,2.432-.122,2.432-1.7a4.134,4.134,0,0,0-1.094-2.736C355.454-249.425,349.435-250.033,346.517-249.3Z" transform="translate(-145.084 257.755)"/>
  <path id="Trazado_19" data-name="Trazado 19" d="M33.52-247.48,32-246.021v53.626l1.52,1.459,1.459,1.52h81.351L117.79-191c1.459-1.581,1.459-1.581,1.642-17.389.182-15.079.122-15.808-.912-15.383-3.04,1.338-4.986,1.094-6.931-.851-1.642-1.7-1.885-2.25-1.581-4.2.669-4.2,4.317-5.9,8.512-4.074,1.094.426,1.155.122.912-6.262-.182-6.141-.3-6.87-1.642-8.269L116.331-249H34.979Zm34.352,4.56a5.574,5.574,0,0,1,1.885,3.04c.73,2.31.669,2.432-1.277,4.256a9.653,9.653,0,0,1-3.77,2.25c-1.763.365-2.006.851-2.493,4.864-.182,1.642,0,2.006.912,2.006,1.4,0,11.674,3.283,22.071,6.992,6.688,2.371,7.661,2.614,11.431,2.31,3.283-.3,4.074-.182,4.074.486,0,.486-.73,1.338-1.642,1.885a25.905,25.905,0,0,0-3.466,2.614c-2.128,1.824-3.04,1.885-4.5.426-.851-.851-2.493-1.277-6.384-1.52a36.334,36.334,0,0,1-7.539-1.277c-2.675-.973-13.559-1.7-14.775-.973-.608.365-.79,2.31-.73,7.478l.122,6.992-1.824,1.581c-1.885,1.581-3.344,1.885-11.856,2.493-4.074.3-5.29.669-7.418,2.189-1.459,1.034-2.918,1.642-3.283,1.4-.973-.547-.243-3.4,1.581-6.019a12.064,12.064,0,0,0,1.52-2.8c0-.79,2.675-.669,3.466.122.486.486,1.581.3,4.074-.608a20.12,20.12,0,0,1,4.621-1.277c1.581,0,1.52-.73-.365-4.742-2.128-4.5-4.074-14.167-3.648-17.815a60.01,60.01,0,0,1,1.216-5.9c.79-3.162.79-3.162-.486-2.8-1.946.608-6.323,4.438-6.81,5.9a4.051,4.051,0,0,1-3.83,2.858c-.973,0-1.277-.243-1.094-.851.182-.486.122-.973-.243-1.094-.3-.122.365-1.155,1.459-2.31a34.385,34.385,0,0,0,3.77-4.864,21.436,21.436,0,0,1,2.8-3.77c2.128-2.067,10.458-3.04,13.559-1.581,1.4.608,1.763.486,3.162-.912A4.62,4.62,0,0,1,67.872-242.92Z" transform="translate(-23.488 257.512)"/>
  <path id="Trazado_20" data-name="Trazado 20" d="M183-239.576v9.424h6.445c8.573,0,9.971-.73,9.971-5.29,0-1.885-.365-2.918-1.338-3.83-.73-.669-.973-1.216-.608-1.216,1.094,0,2.067-2.979,1.642-4.986-.73-3.222-1.581-3.526-9.181-3.526H183Z" transform="translate(-82.679 257.512)"/>
  <path id="Trazado_21" data-name="Trazado 21" d="M214-241.461a66.242,66.242,0,0,0,.365,8.573c.973,2.432,8.391,3.648,12.829,2.128,2.675-.973,3.222-2.8,3.222-10.944V-249h-4.864v6.323c0,6.931-.547,8.269-3.344,8.269s-3.344-1.338-3.344-8.269V-249H214Z" transform="translate(-94.83 257.512)"/>
  <path id="Trazado_22" data-name="Trazado 22" d="M246-239.576v9.424h4.8l.182-7.053.182-7.114,2.493,6.931,2.554,6.931,4.317.182,4.317.182V-249h-4.8l-.182,6.506-.182,6.567-2.432-6.567L254.877-249H246Z" transform="translate(-107.374 257.512)"/>
  <path id="Trazado_23" data-name="Trazado 23" d="M282-239.515v9.485l6.931-.243c6.263-.182,7.114-.3,8.451-1.581,2.858-2.736,2.736-13.68-.182-16.051-1.094-.912-2.554-1.094-8.269-1.094H282Zm11.431-4.5c.426.426.73,2.31.73,4.256,0,3.04-.182,3.648-1.459,4.438a6.183,6.183,0,0,1-3.526.79l-2.006-.182-.182-5.046-.182-4.986h2.979C291.363-244.744,293-244.44,293.431-244.014Z" transform="translate(-121.486 257.512)"/>
  <path id="Trazado_24" data-name="Trazado 24" d="M315-239.576v9.424h13.984v-4.2l-4.378-.182c-4.317-.182-4.438-.243-4.621-1.885l-.182-1.642h8.573V-241.7H319.8l.182-1.7c.182-1.581.3-1.642,4.621-1.824l4.378-.182V-249H315Z" transform="translate(-134.422 257.512)"/>
  <path id="Trazado_25" data-name="Trazado 25" d="M183-192.76v18.24h24.32v-8.512H193.336V-211H183Z" transform="translate(-82.679 242.616)"/>
  <path id="Trazado_26" data-name="Trazado 26" d="M230-192.76v18.24h9.728V-211H230Z" transform="translate(-101.102 242.616)"/>
  <path id="Trazado_27" data-name="Trazado 27" d="M260.857-210.1a11.067,11.067,0,0,0-6.567,6.323c-.547,1.459-.79,5.533-.79,11.917.061,8.877.182,9.971,1.4,12.282a9.525,9.525,0,0,0,3.952,3.952c2.371,1.277,3.344,1.4,12.282,1.4,8.451,0,9.971-.122,11.613-1.155,3.466-2.067,4.135-4.074,4.378-12.4l.243-7.418H270.828v7.3h6.81l-.426,1.946c-.669,3.222-1.7,3.83-6.384,3.83-3.587,0-4.438-.182-5.594-1.4-1.216-1.216-1.4-2.067-1.581-7.539-.365-10.154.79-12.039,7.478-12.039,4.074,0,5.107.426,5.837,2.189.486,1.4.851,1.459,5.472,1.459h4.986l-.3-3.1c-.365-3.587-1.885-5.9-4.8-7.357C279.644-211.321,264.566-211.442,260.857-210.1Z" transform="translate(-110.314 242.633)"/>
  <path id="Trazado_28" data-name="Trazado 28" d="M316.289-193.246c-2.918,9.789-5.35,18-5.29,18.24,0,.3,2.31.486,5.107.486h5.107l.73-3.04.73-3.04h13.133l1.034,3.04,1.034,3.04h10.154l-.79-2.614c-.426-1.4-2.918-9.607-5.533-18.24L336.961-211H321.579Zm15.626-1.824,2.067,7.175h-4.56c-3.709,0-4.5-.182-4.256-.851.182-.486.669-2.067,1.034-3.526,1.581-6.019,3.223-11.066,3.4-10.519C329.726-202.488,330.76-198.961,331.915-195.07Z" transform="translate(-132.853 242.616)"/>
</svg>
