<svg id="laliga" xmlns="http://www.w3.org/2000/svg" width="318.741" height="97.856" viewBox="0 0 318.741 97.856">
  <path id="Trazado_29" data-name="Trazado 29" d="M120.315,132.117a16.133,16.133,0,0,1,8.119-5.847,12.1,12.1,0,0,0-1.638,1.546,10.273,10.273,0,0,1,5.208.695c.2,1.569.327,3.146.564,4.709.307-1.56.391-3.151.611-4.723a10.425,10.425,0,0,1,5.191-.681c-.474-.494-.943-.994-1.435-1.468a15.939,15.939,0,0,1,7.9,5.761c-.564-.271-1.116-.55-1.672-.835a10.927,10.927,0,0,1,.966,5.144,46.865,46.865,0,0,0-4.262,2.026c1.546-.24,3.067-.608,4.6-.907a12.682,12.682,0,0,1,2.339,4.711c.285-.583.561-1.169.854-1.747a16.169,16.169,0,0,1-3.093,9.364c.134-.648.26-1.3.385-1.943a10.848,10.848,0,0,1-4.656,2.5c-1.058-1.142-2.035-2.367-3.2-3.408.653,1.412,1.5,2.724,2.247,4.089a10.93,10.93,0,0,1-3.81,3.67c.642.095,1.287.184,1.929.279a19.741,19.741,0,0,1-4.767.765,18.659,18.659,0,0,1-5.016-.77c.648-.095,1.3-.181,1.943-.276a10.688,10.688,0,0,1-3.818-3.676c.751-1.362,1.594-2.671,2.244-4.086-1.158,1.044-2.135,2.266-3.19,3.411a10.7,10.7,0,0,1-4.658-2.5c.126.656.251,1.312.394,1.965a16.024,16.024,0,0,1-3.093-9.42c.262.614.561,1.211.865,1.8a12.013,12.013,0,0,1,2.319-4.736c1.53.293,3.045.659,4.583.9a43.752,43.752,0,0,0-4.24-2.026,10.838,10.838,0,0,1,.96-5.138c-.558.285-1.119.569-1.683.843m5.644,6.453c.742,2.652,1.7,5.242,2.5,7.874,2.755.008,5.51.022,8.262-.006.812-2.607,1.677-5.194,2.523-7.79-2.18-1.672-4.443-3.224-6.64-4.87C130.371,135.352,128.194,137,125.959,138.57Zm212.864-4.128a9.229,9.229,0,0,1,6.844.9,8.091,8.091,0,0,1,3.609,6.193,9.043,9.043,0,0,1-1.951,7,8.348,8.348,0,0,1-9.682,2.135,7.661,7.661,0,0,1-4.036-5.384,10.613,10.613,0,0,1,1.225-7.879,6.852,6.852,0,0,1,3.991-2.964Zm-89.848.586a8.731,8.731,0,0,1,7.288,2.169,9.435,9.435,0,0,1,.564,12.644c-2.889,3.313-8.482,4.053-11.91,1.161a9.857,9.857,0,0,1-1.384-12.817A8.175,8.175,0,0,1,248.975,135.028Zm133.715.031a8.759,8.759,0,0,1,7.371,2.037,9.427,9.427,0,0,1,.712,12.694c-2.858,3.333-8.437,4.114-11.89,1.264a9.951,9.951,0,0,1-2.445-11.125A8.109,8.109,0,0,1,382.691,135.059Z" transform="translate(-84.712 -91.289)" fill="#fff"/>
  <path id="Trazado_30" data-name="Trazado 30" d="M75.512,1.532A11.754,11.754,0,0,1,79.66.955c1.217,6.406,2.389,12.817,3.589,19.225.106.455.187,1.181-.488,1.164A22.621,22.621,0,0,0,68.113,30.95a10.412,10.412,0,0,1-1.256,1.8A6.935,6.935,0,0,1,65,31.841q-6.962-4.065-13.939-8.108a14.8,14.8,0,0,1-2.071-1.3,1.414,1.414,0,0,1,.251-.848A43.528,43.528,0,0,1,75.512,1.532Z" transform="translate(-35.315 -0.937)"/>
  <path id="Trazado_31" data-name="Trazado 31" d="M174.746,18.033A43.39,43.39,0,0,1,209.928,28.22a.569.569,0,0,1,.039.932c-4.159,4.848-8.365,9.654-12.532,14.5-.31.416-.9.89-1.32.318a22.508,22.508,0,0,0-14.667-5.5c-1.412-.047-2.8.26-4.212.24-1-6.545-1.94-13.1-2.919-19.649C174.227,18.683,174.21,18.038,174.746,18.033Z" transform="translate(-125.629 -12.877)"/>
  <path id="Trazado_32" data-name="Trazado 32" d="M530.692,66.241a6.675,6.675,0,1,1-1.03,12.683,6.629,6.629,0,0,1-3.977-6.994,6.716,6.716,0,0,1,5.007-5.688ZM422.32,73.026q5.92-.038,11.837,0c-.031,11.683.011,23.367-.02,35.048,4.764.05,9.532,0,14.3.025-.011,3.444.008,6.886-.011,10.33-8.7-.014-17.394,0-26.091-.008-.006-15.13.017-30.261-.014-45.391Zm73.391,0c3.947-.014,7.893-.031,11.84.011-.045,11.678.008,23.359-.028,35.039,4.762.047,9.523,0,14.285.025-.011,3.441,0,6.883-.006,10.324q-13.041,0-26.08,0Q495.71,95.721,495.711,73.024Zm-41.04,14.84a17.084,17.084,0,0,1,10.517-6.341,14.84,14.84,0,0,1,8.664,1,20.551,20.551,0,0,1,4.5,3.154c.017-1.22.008-2.442.014-3.662q5.43,0,10.86,0,.059,18.208,0,36.418c-3.681-.02-7.363.02-11.044-.022.011-1.161.006-2.322.022-3.483a15.627,15.627,0,0,1-10.176,4.379,16.508,16.508,0,0,1-12.457-4.538c-3.43-3.4-4.988-8.281-5.177-13.023a20.343,20.343,0,0,1,4.279-13.874m14.039,3.751a8.175,8.175,0,0,0-5.443,3.157,9.857,9.857,0,0,0,1.384,12.817c3.427,2.892,9.021,2.152,11.91-1.161A9.435,9.435,0,0,0,476,93.784,8.731,8.731,0,0,0,468.711,91.615ZM548.231,85.1c5.08-4.742,13.8-5.242,19.122-.625.586.5,1.142,1.033,1.689,1.577,0-1.351-.008-2.7.008-4.05,3.506.017,7.008,0,10.514.008q-.013,16.156-.008,32.312a16.473,16.473,0,0,1-4.463,11.605c-3.517,3.612-8.655,5.211-13.6,5.295-4.912.092-10.067-1.156-13.86-4.413a13.463,13.463,0,0,1-4.558-8.287c4.1.006,8.195-.033,12.292.02.865,1.094,1.767,2.325,3.218,2.663a11.428,11.428,0,0,0,6.126-.29,5.613,5.613,0,0,0,3.578-3.372,14.453,14.453,0,0,0,.24-4.482,16.468,16.468,0,0,1-10.922,4.167A14.751,14.751,0,0,1,547.4,112.8a18.944,18.944,0,0,1-5.016-13.551,19.368,19.368,0,0,1,5.85-14.148m10.327,5.925a6.852,6.852,0,0,0-3.991,2.964,10.613,10.613,0,0,0-1.225,7.879,7.661,7.661,0,0,0,4.036,5.384,8.348,8.348,0,0,0,9.682-2.135,9.044,9.044,0,0,0,1.951-7A8.091,8.091,0,0,0,565.4,91.93a9.229,9.229,0,0,0-6.844-.9Zm34.277-7.061a16.507,16.507,0,0,1,12.482-2.3,16.023,16.023,0,0,1,6.986,4.05q0-1.855.006-3.709c3.626.02,7.251-.02,10.88.02v36.387c-3.7.011-7.4,0-11.095.008q0-1.733,0-3.467a16.6,16.6,0,0,1-4.145,2.85,17.023,17.023,0,0,1-13.168.371,15.524,15.524,0,0,1-8.68-8.379A23.5,23.5,0,0,1,584.5,97.245a19.377,19.377,0,0,1,8.331-13.277m9.59,7.678a8.109,8.109,0,0,0-6.252,4.87,9.951,9.951,0,0,0,2.445,11.125c3.453,2.85,9.032,2.068,11.89-1.264a9.427,9.427,0,0,0-.712-12.694,8.759,8.759,0,0,0-7.371-2.037Zm-75.742-9.635c3.665,0,7.329,0,11,0q-.008,18.2,0,36.407c-3.665,0-7.327,0-10.991,0Q526.683,100.216,526.684,82.011Z" transform="translate(-304.447 -47.875)" fill="#1f1e21"/>
  <path id="Trazado_33" data-name="Trazado 33" d="M8.989,78.379c.382-.042.712.243,1.049.382,5.554,3.009,11.136,5.962,16.688,8.973.533.162.539.734.248,1.119a22.4,22.4,0,0,0-1.49,17.631,8.14,8.14,0,0,1,.488,1.652c-.137.388-.6.433-.918.606-5.867,2.238-11.72,4.51-17.578,6.766-.36.109-.927.366-1.052-.17A43.4,43.4,0,0,1,8.467,79,1.624,1.624,0,0,1,8.989,78.379Z" transform="translate(-2.435 -56.761)"/>
  <path id="Trazado_34" data-name="Trazado 34" d="M261.009,82.488c.3-.343.737-.176.985.134a43.384,43.384,0,0,1,13.486,33.931c.047.6-.695.463-1.066.48-6.419-.329-12.845-.611-19.261-.949-.653.042-.575-.765-.567-1.2a22.218,22.218,0,0,0-2-10.045,24.785,24.785,0,0,0-5.512-7.553c.371-.463.742-.924,1.15-1.354,4.282-4.466,8.5-8.99,12.789-13.445Z" transform="translate(-178.111 -59.589)"/>
  <path id="Trazado_35" data-name="Trazado 35" d="M126.135,119.911a16.37,16.37,0,1,1-12.805,12.108,16.452,16.452,0,0,1,12.805-12.108m-9.183,7.416c.564-.274,1.125-.558,1.683-.843a10.838,10.838,0,0,0-.96,5.138,43.749,43.749,0,0,1,4.24,2.026c-1.538-.246-3.053-.611-4.583-.9a12.012,12.012,0,0,0-2.319,4.736c-.3-.592-.6-1.189-.865-1.8a16.024,16.024,0,0,0,3.093,9.42c-.142-.653-.268-1.309-.394-1.965a10.7,10.7,0,0,0,4.658,2.5c1.055-1.144,2.032-2.367,3.19-3.411-.65,1.415-1.493,2.724-2.244,4.086a10.688,10.688,0,0,0,3.818,3.676c-.648.095-1.3.181-1.943.276a18.657,18.657,0,0,0,5.016.77,19.741,19.741,0,0,0,4.767-.765c-.642-.095-1.287-.184-1.929-.279a10.93,10.93,0,0,0,3.81-3.67c-.742-1.365-1.594-2.677-2.247-4.089,1.161,1.041,2.138,2.266,3.2,3.408a10.848,10.848,0,0,0,4.656-2.5c-.126.648-.251,1.3-.385,1.943a16.168,16.168,0,0,0,3.093-9.364c-.293.578-.569,1.164-.854,1.747a12.683,12.683,0,0,0-2.339-4.711c-1.535.3-3.056.667-4.6.907a46.861,46.861,0,0,1,4.262-2.026,10.927,10.927,0,0,0-.966-5.144c.555.285,1.108.564,1.672.835a15.939,15.939,0,0,0-7.9-5.761c.491.474.96.974,1.435,1.468a10.425,10.425,0,0,0-5.191.681c-.221,1.571-.3,3.162-.611,4.723-.237-1.563-.368-3.14-.564-4.709a10.273,10.273,0,0,0-5.208-.695,12.1,12.1,0,0,1,1.638-1.546A16.133,16.133,0,0,0,116.952,127.327Z" transform="translate(-81.349 -86.498)" fill="#010000"/>
  <path id="Trazado_36" data-name="Trazado 36" d="M147.78,157.962c2.236-1.569,4.413-3.218,6.646-4.792,2.2,1.647,4.46,3.2,6.64,4.87-.846,2.6-1.711,5.183-2.523,7.79-2.752.028-5.507.014-8.262.006C149.477,163.2,148.522,160.614,147.78,157.962Z" transform="translate(-106.533 -110.681)" fill="#020001"/>
  <path id="Trazado_37" data-name="Trazado 37" d="M17.045,203.172a9.869,9.869,0,0,1,1.948-.712,10.452,10.452,0,0,1,1.15,2.077,22.747,22.747,0,0,0,13.922,11.287c-.123.586-.246,1.175-.413,1.75-1.619,5.11-3.2,10.232-4.8,15.348a19.7,19.7,0,0,1-.851,2.543c-.285.4-.754.117-1.125.047A43.405,43.405,0,0,1,0,210.886v-.251c5.621-2.615,11.379-4.94,17.045-7.463Z" transform="translate(0 -146.213)"/>
  <path id="Trazado_38" data-name="Trazado 38" d="M227.092,211.767a2.747,2.747,0,0,1,1.331-.087c6.439.541,12.886.969,19.323,1.535.033.338.053.678.061,1.022A43.378,43.378,0,0,1,230.078,245.8c-.449.438-.913-.095-1.158-.458-3.762-5.177-7.586-10.316-11.337-15.5-.461-.455.039-.918.416-1.181a22.387,22.387,0,0,0,8.666-14.078,23.759,23.759,0,0,1,.427-2.819Z" transform="translate(-156.72 -152.832)"/>
  <path id="Trazado_39" data-name="Trazado 39" d="M130.292,262.143c.363-.248.614.243.812.466,3.52,5.219,7.011,10.461,10.531,15.68a6.228,6.228,0,0,1,.444.773c.017.419-.419.6-.689.829a43.534,43.534,0,0,1-18.156,6.833,10.616,10.616,0,0,1-3.321.17,63.115,63.115,0,0,0-6.7.151,58.49,58.49,0,0,1-7.754-1.624c-.458-.126-.22-.706-.167-1.033,1.708-6.126,3.38-12.267,5.085-18.4a.748.748,0,0,1,1.161-.6,22.38,22.38,0,0,0,12.579-.262,26.568,26.568,0,0,0,6.177-2.986Z" transform="translate(-75.824 -189.189)"/>
</svg>
