<svg xmlns="http://www.w3.org/2000/svg" width="306.311" height="83.131" viewBox="0 0 306.311 83.131">
  <g id="_737px-Ligue1.svg_1_" data-name="737px-Ligue1.svg (1)" transform="translate(94.54 907.047)">
    <g id="Grupo_1" data-name="Grupo 1" transform="translate(-129 21.455)">
      <path id="Trazado_48" data-name="Trazado 48" d="M176.449-928.433c-1.12.138-1.258.221-.622.346a7.426,7.426,0,0,1,2.046.747c0,.055-2.378,1.161-5.282,2.475l-5.3,2.378-6.346,1.659c-3.484.913-6.512,1.659-6.719,1.659a2.261,2.261,0,0,1-.954-.415l-.581-.429-.581.456c-2.751,2.129-5.1,4.6-4.894,5.143.442,1.148,10.4-1.272,21.6-5.268,9.042-3.221,16.024-6.581,15.665-7.521a8.691,8.691,0,0,0-3.083-1.023A20.526,20.526,0,0,0,176.449-928.433Z" transform="translate(-102.091)"/>
      <path id="Trazado_49" data-name="Trazado 49" d="M223.691-922.554a43.393,43.393,0,0,0-11.614,4.424c-1.272.733-1.258.719-1.175.816a41.1,41.1,0,0,0,5.793-1.383,47.388,47.388,0,0,0,8.5-3.719c.76-.442.788-.484.415-.484A17.307,17.307,0,0,0,223.691-922.554Z" transform="translate(-156.951 -4.828)"/>
      <path id="Trazado_50" data-name="Trazado 50" d="M485-903.817c0,.18,1.742,1.811,5.738,5.351,2.129,1.894,4.687,4.2,5.669,5.129,2.06,1.936,4.369,3.94,6.36,5.53,2.254,1.8,2.572,2.032,2.641,1.949.166-.152-1.784-3.249-3.263-5.212a42.645,42.645,0,0,0-10.287-9.374,42.107,42.107,0,0,0-5.945-3.208C484.986-903.969,485-903.969,485-903.817Z" transform="translate(-393.18 -21.187)"/>
      <path id="Trazado_51" data-name="Trazado 51" d="M288.647-848.464a24.841,24.841,0,0,0-8.309,3.456,22.843,22.843,0,0,0-9.955,20.794,25.621,25.621,0,0,0,1.687,7.867,23.613,23.613,0,0,0,11.6,12.361,21.937,21.937,0,0,0,5.973,1.908l.677.1-.083-.885c-.111-1.051-.719-6.415-.843-7.355l-.1-.664-1.051.1c-.581.042-1.2.1-1.383.111-.691.028-5.047-5.116-6.789-8.033a30.424,30.424,0,0,1-2.489-4.922c0-.318,1.355-4.48,2.088-6.429.705-1.839,2.171-5.116,3.069-6.844.774-1.507.594-1.383,2.793-1.811a66.5,66.5,0,0,1,10.079-1.2l2.751-.138.539.525a54.261,54.261,0,0,1,3.816,4.438c1.687,2.212,4.867,7.6,4.867,8.254a35.139,35.139,0,0,1-1.327,5.3c-.926,2.848-4.12,9.042-4.742,9.208-.124.041-.677.138-1.244.221l-1.009.166.083.581c.207,1.217.484,4.272.581,6.208a7.068,7.068,0,0,0,.235,2.032,24.107,24.107,0,0,0,3.622-1.8,26.219,26.219,0,0,0,6.83-6.429,29.47,29.47,0,0,0,3.056-6.125,20.862,20.862,0,0,0,1.065-6.263c.276-7.591-2.06-13.743-7.038-18.61a21.269,21.269,0,0,0-5.71-3.982,20.612,20.612,0,0,0-9.678-2.364A12.68,12.68,0,0,0,288.647-848.464Z" transform="translate(-208.165 -68.756)"/>
      <path id="Trazado_52" data-name="Trazado 52" d="M79.848-752.5c-1.618.581-3.056,2.157-4.383,4.825A24.436,24.436,0,0,0,74-743.9a4.284,4.284,0,0,0,1.341-.5,38.212,38.212,0,0,1,5.365-1.908c.387-.069.47-.014,1.189,1a49.238,49.238,0,0,1,6.153,11.158l.664,1.659-.041,2.143a65.855,65.855,0,0,1-.581,7.95,46.282,46.282,0,0,1-1.2,6.457,8.028,8.028,0,0,1-1.341.4,23.966,23.966,0,0,1-6.415.277,4.188,4.188,0,0,0-1.106-.083,2.274,2.274,0,0,0,.332.871c1.631,3.125,3.871,5.157,6.3,5.7a8.974,8.974,0,0,0,4.314-.276,8.009,8.009,0,0,0,2.89-2.765c3.125-4.867,4.148-15.582,2.309-24.168a36.574,36.574,0,0,0-3.387-9.028c-1.922-3.512-4.77-6.4-7.2-7.314A6.325,6.325,0,0,0,79.848-752.5Z" transform="translate(-39.005 -151.485)"/>
      <path id="Trazado_53" data-name="Trazado 53" d="M387.015-736.569a7.525,7.525,0,0,0-6.415,7.535,7.553,7.553,0,0,0,8.074,7.632,7.535,7.535,0,0,0,7.148-7.148A7.676,7.676,0,0,0,387.015-736.569Z" transform="translate(-303.215 -165.318)"/>
      <path id="Trazado_54" data-name="Trazado 54" d="M623.474-711.558c-2.074,3.374-5.378,25.412-4.839,32.187.138,1.77.207,1.936.664,1.936,1.383,0,4.258-6.18,5.71-12.264a38.317,38.317,0,0,0,.664-16.909c-.539-2.7-1.41-5.392-1.728-5.392C623.833-712,623.626-711.793,623.474-711.558Z" transform="translate(-508.288 -186.568)"/>
      <path id="Trazado_55" data-name="Trazado 55" d="M72.629-644.442c-1.092.553-1.88,1.922-2.337,4.065a12.583,12.583,0,0,0-.138,3.111A12.291,12.291,0,0,0,71.5-631.39c1.258,2.627,2.986,3.733,4.632,2.986,3.429-1.549,3.567-10.536.221-14.766C75.27-644.539,73.79-645.036,72.629-644.442Z" transform="translate(-35.671 -244.573)"/>
      <path id="Trazado_56" data-name="Trazado 56" d="M281.7-463.676c-6.263.664-12.941,2.862-16.882,5.558-2.945,2-4.314,4.051-4.314,6.388a3.677,3.677,0,0,0,.442,2.032c.968,2.046,2.751,3.3,5.987,4.2,1.742.484,1.742.484,1.244-.5a20.516,20.516,0,0,1-1.438-4.286c-.111-.567-.194-1.037-.18-1.051s.4-.263.857-.567a61.987,61.987,0,0,1,11.268-5.807,12.614,12.614,0,0,1,2.157-.691c1.313-.166,9.789,1.092,13.909,2.046,1.134.263,1.2.3,1.286.691a25.888,25.888,0,0,1-.069,5.033,4.757,4.757,0,0,0-.1,1.12,14.538,14.538,0,0,0,3.111-2.489,9.736,9.736,0,0,0,1.3-1.839,3.9,3.9,0,0,0,.456-2.392,3.843,3.843,0,0,0-.387-2.24c-1.231-2.5-5.848-4.6-11.462-5.212A51.972,51.972,0,0,0,281.7-463.676Z" transform="translate(-199.72 -400.452)"/>
      <path id="Trazado_57" data-name="Trazado 57" d="M366.688-384.44c-5.033.581-8.918,3-8.489,5.3.636,3.4,10.425,3.4,14.891.014a3.228,3.228,0,0,0,1.479-2.267c.124-1.3-.857-2.226-2.9-2.751A16.842,16.842,0,0,0,366.688-384.44Z" transform="translate(-283.882 -468.778)"/>
    </g>
    <g id="Grupo_2" data-name="Grupo 2" transform="translate(-11 -156.496)">
      <path id="Trazado_58" data-name="Trazado 58" d="M215-224.48a15.883,15.883,0,0,0-7.24,4.3C204.269-216.663,203-213.4,203-208.01c.029,3.75.288,5.076,1.644,7.874a16.421,16.421,0,0,0,10.009,8.249,23.393,23.393,0,0,0,10.3-.087,15.394,15.394,0,0,0,10.47-16.47l-.2-2.048H219.441v6.922h7.24l-.808,1.471a6.321,6.321,0,0,1-3.807,3.288,6.806,6.806,0,0,1-4.557.058c-4.125-1.067-6.028-4.384-5.8-10.009a8.846,8.846,0,0,1,1.067-4.73,6.435,6.435,0,0,1,4.673-3.923,8.4,8.4,0,0,1,8.105,2.625l1.356,1.442,3.317-1.817,3.288-1.817-.433-.865a19.6,19.6,0,0,0-2.365-2.769,14.709,14.709,0,0,0-6.951-3.98A28.788,28.788,0,0,0,215-224.48Z" transform="translate(-130.216 -500.674)"/>
      <path id="Trazado_59" data-name="Trazado 59" d="M20-205.28v15.72H38.171v-7.5H28.365V-221H20Z" transform="translate(0 -503.433)"/>
      <path id="Trazado_60" data-name="Trazado 60" d="M128-205.28v15.72h8.365V-221H128Z" transform="translate(-76.849 -503.433)"/>
      <path id="Trazado_61" data-name="Trazado 61" d="M359.987-209.116l.087,11.912.779,1.644c2.942,6.288,12.807,8.74,20.623,5.105a11.5,11.5,0,0,0,5.336-5.682c.663-1.615.663-1.875.75-13.268l.087-11.6h-8.365l-.087,10.614-.087,10.643-.721,1.038c-1.154,1.7-2.538,2.307-4.99,2.163-2.481-.115-3.721-.836-4.557-2.654-.49-1.1-.548-2.048-.548-11.509V-221H359.9Z" transform="translate(-241.861 -503.433)"/>
      <path id="Trazado_62" data-name="Trazado 62" d="M507.058-205.367l.087,15.662,9.316.087,9.288.058v-7.211h-10.1v-4.9h9.23v-7.211h-9.23v-4.9h9.807V-221H507Z" transform="translate(-346.531 -503.433)"/>
      <path id="Trazado_63" data-name="Trazado 63" d="M678-217.539v3.461h4.615v24.517h8.365V-221H678Z" transform="translate(-468.209 -503.433)"/>
    </g>
  </g>
</svg>
