<svg xmlns="http://www.w3.org/2000/svg" width="103.032" height="97.485" viewBox="0 0 103.032 97.485">
  <g id="Grupo_5" data-name="Grupo 5" transform="translate(-12.689 -2.563)">
    <path id="Trazado_66" data-name="Trazado 66" d="M34.232,8.967,53.838,4.2,67.35,15.37,63.773,29.633,48.76,36.609,29.772,31.575,26.946,19.962l7.286-11Z" transform="translate(2.863)" fill="#28a745" stroke="#fff" stroke-miterlimit="10" stroke-width="3" fill-rule="evenodd"/>
    <path id="Trazado_67" data-name="Trazado 67" d="M63.782,15.152,61.4,28.664l14.88,14.881,15.9-2.384,4.9-17.84L79.679,9.058l-15.9,6.094Z" transform="translate(10.67 1.101)" fill="#ffc107" stroke="#fff" stroke-miterlimit="10" stroke-width="3" fill-rule="evenodd"/>
    <path id="Trazado_68" data-name="Trazado 68" d="M77.8,41.776l15.013-2.694,8.92,15.013L89.417,74.452,73.962,72.995,68.311,60.055,77.8,41.776Z" transform="translate(12.236 7.904)" fill="#dc3545" stroke="#fff" stroke-miterlimit="10" stroke-width="3" fill-rule="evenodd"/>
    <path id="Trazado_70" data-name="Trazado 70" d="M33.894,65.833,51.6,52.762l19.915,5.211,6.359,14.971-11,14.438L42.063,82.171Z" transform="translate(4.438 11.004)" fill="#007bff" stroke="#fff" stroke-miterlimit="10" stroke-width="3" fill-rule="evenodd"/>
    <path id="Trazado_72" data-name="Trazado 72" d="M14.31,46.769,30.516,30.3l17.53,4.9,4.46,18.988L34.225,68.319l-15.9-.443L14.31,46.769Z" transform="translate(0 5.914)" fill="#343a40" stroke="#fff" stroke-miterlimit="10" stroke-width="3" fill-rule="evenodd"/>
  </g>
</svg>
