<svg xmlns="http://www.w3.org/2000/svg" width="272.176" height="114.599" viewBox="0 0 272.176 114.599">
  <g id="premier" transform="translate(0 0)">
    <path id="Trazado_1" data-name="Trazado 1" d="M524.426-1485.607c-.318.849-3.8,10.849-3.915,11.262l-.142.483L517.2-1476c-1.745-1.179-4.528-3.054-6.179-4.175-2.795-1.887-3.007-2.017-3.007-1.722s.979,6.521,1.474,9.363a14.309,14.309,0,0,1,.236,1.627,7.1,7.1,0,0,1-1.05-.731,42.77,42.77,0,0,0-4.127-2.771,26.739,26.739,0,0,0-3.738-1.875c-.059.023.094.271.33.566a39.428,39.428,0,0,1,5.342,10.224l.625,1.675,1.309-.7a53.338,53.338,0,0,1,12.571-4.587,49.243,49.243,0,0,1,10.437-1.274,51.3,51.3,0,0,1,13.892,1.486c.955.224,1.415.295,1.439.2.012-.071.118-.873.236-1.781a37.476,37.476,0,0,1,2.642-10.378,4.853,4.853,0,0,0,.342-.9c-.13-.354-5.189,4.422-6.722,6.345l-.767.967-.071-.672c-.035-.365-.212-2.771-.377-5.33-.33-4.941-.377-5.46-.519-5.4-.047.024-1.887,1.969-4.08,4.34s-4.422,4.764-4.965,5.318l-.979,1.026-.318-.5c-.177-.259-1.675-2.606-3.326-5.2s-3.066-4.788-3.16-4.882C524.556-1485.866,524.521-1485.854,524.426-1485.607Z" transform="translate(-482.54 1485.835)"/>
    <path id="Trazado_2" data-name="Trazado 2" d="M393.712-1330.705a52.568,52.568,0,0,0-19.458,4.811l-1.179.554.991.224a8.359,8.359,0,0,1,5.613,4.576l.318.637-.354-.259a14.2,14.2,0,0,0-3.031-1.368c-2.936-.755-5.59.094-6.958,2.241a8.608,8.608,0,0,0-.708,1.474,6.611,6.611,0,0,0-.377,2.594,10.135,10.135,0,0,0,.2,2.948,15.978,15.978,0,0,0,1.309,3.75,3.782,3.782,0,0,1,.224.436c0,.177-1.368-.825-2.017-1.474a9.682,9.682,0,0,1-2.665-7.547,8.281,8.281,0,0,1,.79-3.6,2.9,2.9,0,0,0,.295-.743,12.943,12.943,0,0,0-1.474,1.038,50.531,50.531,0,0,0-11.286,11.97c-1.333,2-3.113,5.153-2.972,5.295.024.024,1.132.212,2.465.425s2.488.389,2.571.413-.118.377-.578.908c-4.045,4.823-8.054,13.892-9.187,20.791a7.746,7.746,0,0,0-.153,2.889c.047,0,1.934-.554,4.2-1.25s4.139-1.226,4.151-1.2a6.009,6.009,0,0,1-.177,1.026c-.507,2.323-.649,4.21-.649,8.974a57.008,57.008,0,0,0,.212,6.486,46.287,46.287,0,0,0,2.17,10.154,17.677,17.677,0,0,0,1.757,3.609c.483.165,6.215-5.307,8.762-8.373,1.545-1.863,3.9-4.977,4.965-6.545l.649-.967.153.436a44.277,44.277,0,0,1,1.073,4.469,37.825,37.825,0,0,1,.625,7.418,60.364,60.364,0,0,1-1.392,12.571c-.224,1.132-.4,2.17-.4,2.3,0,.2.283.377,1.392.908a32.656,32.656,0,0,0,9.4,2.925,48.591,48.591,0,0,0,8.738.236,42.385,42.385,0,0,0,15.2-4.434,40.26,40.26,0,0,0,4.21-2.5c.248-.224.13-.578,1.1,3.149.436,1.651.814,3.031.837,3.054a19.74,19.74,0,0,0,2.925-1.981,37.623,37.623,0,0,0,15.095-25.213l.259-1.828,1.981,2.146a15.875,15.875,0,0,0,2.076,2.04,33.537,33.537,0,0,0,1.415-4.635,42.333,42.333,0,0,0,1.38-12.206,38.177,38.177,0,0,0-1.38-10.26,55.577,55.577,0,0,0-8.22-17.135,5.077,5.077,0,0,0-.837-1.038,11.718,11.718,0,0,0-.248,1.439l-.189,1.356-1.851-1.969-1.851-1.958.554-.448c.873-.684.884-.719.731-1.474a6.423,6.423,0,0,0-1.392-2.689l-.448-.436-.7.236a5.782,5.782,0,0,0-2.229,1.4l-.46.472-.483-.4c-.908-.743-3.868-2.311-4.045-2.146a13.836,13.836,0,0,0,1,1.451,19.181,19.181,0,0,1,2.076,3.184,14,14,0,0,0,1.816,1.6,45.237,45.237,0,0,1,4.717,4.2l.377.484-.436-.189c-2.724-1.156-8.644-1.132-11.522.035l-.719.295-1.05-1.156c-.578-.637-2.146-2.252-3.5-3.6l-2.465-2.429v-.719a5.5,5.5,0,0,1,1.427-3.361l.271-.342-.731.071a7.088,7.088,0,0,0-3.019,1.238c-.318.236-.637.483-.719.542-.106.071-.425-.071-1.014-.448-1.793-1.156-5.849-2.9-6.734-2.9a15.1,15.1,0,0,0-5.767,2.241,12.657,12.657,0,0,0-2.111,1.675,5.693,5.693,0,0,0,.92.6c3.172,1.828,4.623,2.205,8.479,2.205,2.323,0,3.833.153,4.257.424a75.414,75.414,0,0,1,7,6.7c.248.33.248.342.035.26a22.315,22.315,0,0,0-2.771-.672,40.483,40.483,0,0,0-7.17-.224c-5,.177-6.911-.059-9.045-1.109a9.919,9.919,0,0,1-4.54-4.245,7.247,7.247,0,0,1-.826-2.783v-.424l-1.946-.271a16.3,16.3,0,0,1-2-.365,17.774,17.774,0,0,1,2.972-2.807,15.731,15.731,0,0,1,3.55-1.981,3.685,3.685,0,0,0,.849-.4,10.085,10.085,0,0,0-1.061-.943,9.369,9.369,0,0,1-1.061-.955,12.609,12.609,0,0,1,2.182-1.639,36.128,36.128,0,0,1,5.413-2.653,38.7,38.7,0,0,1,5.767-1.545l1.627-.307,1.616.825a64.958,64.958,0,0,1,6.745,4.01c1.309.873,1.993,1.262,2.076,1.191a10.407,10.407,0,0,0,1.309-4.033,1.925,1.925,0,0,1,.13-.672,29.554,29.554,0,0,1,3.738,1.946,55.8,55.8,0,0,1,9.045,6.769c.448.413.8.7.8.637s-.342-.908-.755-1.875a24.769,24.769,0,0,1-2.134-6.922,1.484,1.484,0,0,0-.637-1.3,30.163,30.163,0,0,0-9.328-5.366,43.82,43.82,0,0,0-5.248-1.545,3.058,3.058,0,0,0,.259.755,16.139,16.139,0,0,1,.92,3.656l.094.826-.637-.708a32.715,32.715,0,0,0-4.941-4.422,5.29,5.29,0,0,0-3.691-1.179A49.907,49.907,0,0,0,393.712-1330.705Zm19.493,34.576a25.975,25.975,0,0,0,4.3,2.311l.79.318v6.427l-1.262,1c-5.33,4.186-9.576,6.344-12.488,6.344H403.7l-2.712-4.977-2.712-4.977.731-.542a40.37,40.37,0,0,1,10.8-5.991,19.2,19.2,0,0,1,2.276-.6A8.033,8.033,0,0,1,413.205-1296.129Zm13.715-.083a28.081,28.081,0,0,1,1.356,4.4,17.285,17.285,0,0,1,.366,3.55,15.086,15.086,0,0,1-.448,4.977,11.453,11.453,0,0,1-1.038,2.618,4.672,4.672,0,0,1-.519-.861,21.624,21.624,0,0,0-3.137-4.151l-1.191-1.285v-6.415l.92-.566c.967-.613,2.571-1.734,3.149-2.217.2-.165.366-.295.377-.307A1.045,1.045,0,0,1,426.92-1296.211Zm-4.328,16.439a14.662,14.662,0,0,1,1.875,3.573l.295.861-.271,1.026a18.058,18.058,0,0,1-2.441,5.425,18.26,18.26,0,0,1-3.231,3.337l-.342.189-.024-1.309a23.662,23.662,0,0,0-.507-4.458c-.342-1.533-.295-1.486-.9-.932a14.457,14.457,0,0,1-3.2,2.04,18.717,18.717,0,0,1-3.986,1.451c-.118-.035-3.361-5.873-3.361-6.038a1.038,1.038,0,0,1,.425-.047c1.568,0,5.731-2.182,9.128-4.776l1.132-.873.943-.047c.507-.012,1.6-.047,2.429-.059l1.509-.024Z" transform="translate(-346.011 1349.047)"/>
    <path id="Trazado_3" data-name="Trazado 3" d="M1255-1304.055V-1285h7.429v-12.383h2.276c4.882-.012,6.958-.365,9.576-1.651a11.593,11.593,0,0,0,6.38-8.88,17.717,17.717,0,0,0-.224-6.014c-1.215-4.623-4.54-7.654-9.694-8.844-1-.224-1.486-.248-8.4-.283L1255-1323.1Zm13.963-11.663a5.368,5.368,0,0,1,3.915,3.762,7.516,7.516,0,0,1-.059,3.361,5.447,5.447,0,0,1-4.186,3.727,17.732,17.732,0,0,1-3.455.177h-2.748v-11.344l2.925.059A15.157,15.157,0,0,1,1268.963-1315.718Z" transform="translate(-1147.805 1342.291)"/>
    <path id="Trazado_4" data-name="Trazado 4" d="M2201.167-1313.694a4.155,4.155,0,0,0-2.842,2.087,3.866,3.866,0,0,0-.531,2.276,4.135,4.135,0,0,0,2.406,3.727,3.451,3.451,0,0,0,1.922.342,3.379,3.379,0,0,0,1.84-.307,4.23,4.23,0,0,0,2-1.9,2.9,2.9,0,0,0,.4-1.981,3.454,3.454,0,0,0-1.085-2.96A4.351,4.351,0,0,0,2201.167-1313.694Z" transform="translate(-1979.417 1334.076)"/>
    <path id="Trazado_5" data-name="Trazado 5" d="M1636.571-1218.6a14.234,14.234,0,0,0-5.212,1.58,13.04,13.04,0,0,0-6.628,10.46c-.531,6.852,3.255,12.288,9.705,13.9a17.974,17.974,0,0,0,6.215.224,14.241,14.241,0,0,0,7.595-3.727,3.751,3.751,0,0,0,.767-.861,25.406,25.406,0,0,0-2.111-2.241l-2.1-2.1-.849.708a8.511,8.511,0,0,1-5.377,2.111,6.419,6.419,0,0,1-5-1.686,6.772,6.772,0,0,1-1.6-2.5l-.071-.259h18.255l.083-.448a23.155,23.155,0,0,0-.118-4.741,12.256,12.256,0,0,0-9.623-10.213A20.1,20.1,0,0,0,1636.571-1218.6Zm2.76,6.356a5.629,5.629,0,0,1,3.962,3.75l.083.318H1637.7c-6.462,0-5.908.118-5.307-1.132a5.755,5.755,0,0,1,3.656-2.925A8.079,8.079,0,0,1,1639.331-1212.245Z" transform="translate(-1473.891 1250.139)"/>
    <path id="Trazado_6" data-name="Trazado 6" d="M1875.533-1218.46a5.972,5.972,0,0,0-3.279,1.816,6.623,6.623,0,0,0-1.05,1.274c-.083.212-.2.389-.248.389s-.118-.177-.165-.389-.189-.873-.318-1.474l-.248-1.085H1864v25.119h7.076v-7.819c0-8.255.012-8.4.566-9.458a3.655,3.655,0,0,1,1.557-1.486,5.311,5.311,0,0,1,3.16-.177,3.961,3.961,0,0,1,1.934,1.651c.554,1.085.566,1.2.566,9.469v7.819h7.076v-7.889c0-7.677.012-7.913.248-8.691a3.683,3.683,0,0,1,2.217-2.323,5.545,5.545,0,0,1,2.913,0,3.989,3.989,0,0,1,2.064,2.1l.283.708.036,8.043.035,8.054h7.064v-7.878c0-8.208-.071-9.87-.472-11.345a8.7,8.7,0,0,0-6.333-6.333,13.682,13.682,0,0,0-4.753.012,8.591,8.591,0,0,0-4.446,2.936l-.554.7-.224-.342a16.351,16.351,0,0,0-1.191-1.274,7.268,7.268,0,0,0-3.467-2A10.216,10.216,0,0,0,1875.533-1218.46Z" transform="translate(-1684.987 1250.104)"/>
    <path id="Trazado_7" data-name="Trazado 7" d="M2297.675-1218.6a13.455,13.455,0,0,0-5.012,1.4,12.991,12.991,0,0,0-6.852,9.493,19.317,19.317,0,0,0,.047,5.083,12.482,12.482,0,0,0,7.076,9.128,14.424,14.424,0,0,0,6.156,1.238,14.113,14.113,0,0,0,8.243-2.406,12.4,12.4,0,0,0,2.665-2.347,24.6,24.6,0,0,0-2.111-2.252l-2.1-2.1-.967.778a8.286,8.286,0,0,1-5.165,2.04,6.632,6.632,0,0,1-3.55-.625,6.256,6.256,0,0,1-3.149-3.561l-.071-.26h18.255l.083-.542a22.369,22.369,0,0,0-.094-4.411,12.157,12.157,0,0,0-11.746-10.661A13,13,0,0,0,2297.675-1218.6Zm2.594,6.344a5.825,5.825,0,0,1,3.656,2.925,5.664,5.664,0,0,1,.413.991c0,.141-.955.165-5.661.165-6.474,0-5.908.118-5.307-1.168a5.709,5.709,0,0,1,3.679-2.889A8.007,8.007,0,0,1,2300.27-1212.254Z" transform="translate(-2056.927 1250.136)"/>
    <path id="Trazado_8" data-name="Trazado 8" d="M1505.052-1215.363a6.157,6.157,0,0,0-2.417.8,7.208,7.208,0,0,0-2.441,2.24,1.959,1.959,0,0,1-.365.5c-.047,0-.106-.2-.142-.448s-.189-.979-.33-1.651l-.259-1.2H1493v25.119h7.064l.035-7.229c.035-7.194.035-7.217.307-7.948a5.164,5.164,0,0,1,3.031-3.125,5.271,5.271,0,0,1,2.3-.271,16.479,16.479,0,0,1,1.981.083l.377.094-.024-3.385-.035-3.385-.318-.083A9.345,9.345,0,0,0,1505.052-1215.363Z" transform="translate(-1357.738 1247.302)"/>
    <path id="Trazado_9" data-name="Trazado 9" d="M2537.052-1215.4a6.159,6.159,0,0,0-2.417.8,6.721,6.721,0,0,0-2.382,2.182,2.557,2.557,0,0,1-.424.554,5.56,5.56,0,0,1-.271-1.1c-.106-.59-.259-1.333-.33-1.651l-.118-.554H2525v25.118h7.064l.035-7.229c.035-7.193.047-7.217.307-7.948a5.165,5.165,0,0,1,3.031-3.125,5.12,5.12,0,0,1,2.241-.271,15.692,15.692,0,0,1,2.04.094l.5.083v-6.71l-.436-.118A8.681,8.681,0,0,0,2537.052-1215.4Z" transform="translate(-2268.037 1247.334)"/>
    <path id="Trazado_10" data-name="Trazado 10" d="M2204-1200.441v12.559h6.958V-1213H2204Z" transform="translate(-1984.892 1245.175)"/>
    <path id="Trazado_11" data-name="Trazado 11" d="M1255-948.426v18.574h23.585v-7.076h-16.156V-967H1255Z" transform="translate(-1147.805 1028.185)"/>
    <path id="Trazado_12" data-name="Trazado 12" d="M1478.13-870.287a12.852,12.852,0,0,0-11.875,11.911,12.926,12.926,0,0,0,4.823,11.71,13.514,13.514,0,0,0,8.526,2.689,14.154,14.154,0,0,0,10.106-3.856l.92-.849-2.111-2.205c-1.156-1.2-2.123-2.193-2.146-2.193s-.425.318-.884.7a9.173,9.173,0,0,1-3.715,1.91,8.992,8.992,0,0,1-4.54-.153,6.848,6.848,0,0,1-2.748-1.958,7.029,7.029,0,0,1-1.014-2c0-.106,1.9-.142,9.08-.142,8.55,0,9.092-.012,9.175-.212a17.956,17.956,0,0,0,.083-2.264,12.726,12.726,0,0,0-.825-5.165,11.916,11.916,0,0,0-5.684-6.533A12.611,12.611,0,0,0,1478.13-870.287Zm2.441,6.25a5.875,5.875,0,0,1,4.281,3.844l.071.271h-11.439l.153-.448a5.742,5.742,0,0,1,5.519-3.785A7.454,7.454,0,0,1,1480.571-864.037Z" transform="translate(-1334.082 942.923)"/>
    <path id="Trazado_13" data-name="Trazado 13" d="M2448.723-870.346a12.672,12.672,0,0,0-10.908,7.76,14.49,14.49,0,0,0,.094,11.274,11.05,11.05,0,0,0,2.3,3.337,13.178,13.178,0,0,0,9.87,3.951,14.063,14.063,0,0,0,10.106-3.833l.908-.873-.259-.342c-.13-.189-1.1-1.191-2.123-2.217l-1.887-1.875-.7.613a9.193,9.193,0,0,1-3.161,1.852,9.631,9.631,0,0,1-4.54.224,6.286,6.286,0,0,1-4.422-4.045l-.071-.259h18.255l.083-.448a24.393,24.393,0,0,0-.106-4.694A12.248,12.248,0,0,0,2448.723-870.346Zm2.571,6.309a5.7,5.7,0,0,1,3.679,2.925,5.347,5.347,0,0,1,.413.979c0,.141-.956.165-5.672.165h-5.672l.083-.318a5.367,5.367,0,0,1,1.344-2.229A6.377,6.377,0,0,1,2451.293-864.037Z" transform="translate(-2190.168 942.97)"/>
    <path id="Trazado_14" data-name="Trazado 14" d="M1713.657-867.6a12.994,12.994,0,0,0-9.882,8.727,11.8,11.8,0,0,0-.625,4.705,13.388,13.388,0,0,0,7.536,11.451,11.121,11.121,0,0,0,9.128.236,9.22,9.22,0,0,0,2.866-2.076c.4-.46.613-.625.649-.507.035.094.2.766.365,1.486l.318,1.333h6.227v-25.119h-6.227l-.318,1.38c-.177.767-.33,1.462-.365,1.557s-.236-.071-.542-.448a8.322,8.322,0,0,0-4.222-2.547A20.062,20.062,0,0,0,1713.657-867.6Zm5.425,6.592a6.371,6.371,0,0,1,4.21,6.073,6.164,6.164,0,0,1-1.274,4.057,6.432,6.432,0,0,1-8.007,1.84,7.362,7.362,0,0,1-2.476-2.252,6.89,6.89,0,0,1-.271-6.663,6.617,6.617,0,0,1,4.068-3.219A8.556,8.556,0,0,1,1719.082-861.006Z" transform="translate(-1543.088 940.576)"/>
    <path id="Trazado_15" data-name="Trazado 15" d="M1965.116-867.668a12.118,12.118,0,0,0-6.887,3.632,12.079,12.079,0,0,0-3.373,5.92,9.995,9.995,0,0,0-.271,3.29,10.021,10.021,0,0,0,.318,3.4,15.8,15.8,0,0,0,1.934,4.245,13.214,13.214,0,0,0,5.047,4.281,12.924,12.924,0,0,0,8.255.814,10.414,10.414,0,0,0,3.4-1.769l.79-.649v1.274a6.837,6.837,0,0,1-.684,3.326,5.854,5.854,0,0,1-3.738,2.771,14.722,14.722,0,0,1-4.717.142,11.493,11.493,0,0,1-5.094-2.606,2.745,2.745,0,0,0-.7-.531c-.059,0-.967,1.2-2.028,2.677l-1.91,2.677.5.46a20.47,20.47,0,0,0,3.054,2.217,16.434,16.434,0,0,0,8.361,1.981,14.368,14.368,0,0,0,7.3-1.663,11.217,11.217,0,0,0,6.344-8.243c.177-.79.2-2.276.236-14.187l.047-13.29-3.1.024-3.1.035-.354,1.486-.354,1.474-.637-.7a8.481,8.481,0,0,0-4.481-2.5A13.246,13.246,0,0,0,1965.116-867.668Zm4.67,6.356a6.492,6.492,0,0,1,4.717,4.658,8.484,8.484,0,0,1,0,3.361,6.685,6.685,0,0,1-4.6,4.6,8.194,8.194,0,0,1-3.3,0,6.9,6.9,0,0,1-4.033-3.184,6.624,6.624,0,0,1,1.144-7.724A6.432,6.432,0,0,1,1969.786-861.312Z" transform="translate(-1764.888 940.717)"/>
    <path id="Trazado_16" data-name="Trazado 16" d="M2208.936-856.957l.047,8.054.307,1.144a12.04,12.04,0,0,0,1.474,3.443c2.064,3.243,5.779,5.059,10.354,5.059a12.4,12.4,0,0,0,8.691-3.09,10.918,10.918,0,0,0,3.361-6.144c.165-.755.2-2,.236-8.7l.047-7.807h-7.087v7.052c0,6.675-.012,7.111-.236,7.984a4.861,4.861,0,0,1-5.035,3.951,4.576,4.576,0,0,1-4.918-3.526c-.224-.743-.236-1.144-.283-8.125l-.035-7.335H2208.9Z" transform="translate(-1989.214 938.214)"/>
  </g>
</svg>
