<svg id="serie_a" data-name="serie a" xmlns="http://www.w3.org/2000/svg" width="140.395" height="114.794" viewBox="0 0 140.395 114.794">
  <path id="Trazado_40" data-name="Trazado 40" d="M185.378-312.706c.166.111,2.5,1,5.214,2,14.033,4.881,23.351,11.26,26.4,17.86,3.106,6.933-.721,14.809-10.428,21.3-8.154,5.436-19.746,9.6-31.394,11.2a98.039,98.039,0,0,1-23.518-.222c-6.49-1.054-14.754-3.994-19.358-6.878l-3.605-2.274-.61,1.553c-.943,2.33-1.22,8.209-.444,10.871,2.274,8.1,12.646,14.477,28.01,17.083,5.658.943,8.264,1.054,17.472.832,11.371-.277,16.751-1,25.182-3.439,10.594-3.051,19.025-7.321,25.792-13.034A40.495,40.495,0,0,0,236.019-274.1c1.109-3.827,1.165-10.76.055-13.977-3.605-10.428-18.581-18.748-42.154-23.518C187.375-312.928,184.879-313.261,185.378-312.706Z" transform="translate(-96.484 312.963)"/>
  <path id="Trazado_41" data-name="Trazado 41" d="M124.618-310.251c-14.366,1.5-26.957,5.768-36.33,12.258-12.924,8.93-19.358,23.518-15.2,34.611.943,2.662,2.108,4.215,5.768,7.821,3.883,3.883,5.436,4.992,11.2,7.876a128.066,128.066,0,0,0,13.756,5.658c7.654,2.441,18.026,5.047,18.026,4.493a13,13,0,0,0-3.439-1.664c-19.58-7.488-30.229-18.137-27.622-27.567,3.328-11.87,24.072-21.854,47.479-22.8,15.087-.666,28.232,2.44,38.216,8.985a27.835,27.835,0,0,0,4.16,2.5c.887,0,2.385-7.211,2.052-9.928-.666-5.658-4.936-11.149-11.7-14.976-3.938-2.274-13.367-5.325-19.746-6.379A133.812,133.812,0,0,0,124.618-310.251Z" transform="translate(-71.832 311.894)"/>
  <path id="Trazado_42" data-name="Trazado 42" d="M98.177-157.983a6.789,6.789,0,0,0-4.16,6.711c.055,3.494,1.553,5.547,5.935,8.154,6.545,3.938,7.932,6.212,5.047,8.486-1.719,1.387-4.493,1.5-7.71.333a22.7,22.7,0,0,0-2.551-.832c-.61,0-1.719,3.217-1.387,3.827.61.943,4.271,1.719,8.264,1.719,6.6,0,10.372-3.051,10.372-8.431,0-3.328-1.442-5.1-7.322-8.875-2.385-1.5-4.6-3.273-4.936-3.883-.777-1.442-.166-2.94,1.5-3.661,1.83-.887,2.94-.832,5.713.166l2.274.777.832-2c.444-1.054.832-2.052.832-2.108a13.268,13.268,0,0,0-2.441-.777C104.777-159.259,100.34-159.148,98.177-157.983Z" transform="translate(-81.388 244.379)"/>
  <path id="Trazado_43" data-name="Trazado 43" d="M263.1-144.8c-3,7.266-5.547,13.645-5.769,14.144-.277.777.056.943,2.163.943h2.5l1.331-3.328,1.276-3.328h9.6l1.22,3.328,1.22,3.328h2.718c1.5,0,2.718-.222,2.718-.555,0-.277-2.274-6.656-5.047-14.144L271.976-158h-3.494Z" transform="translate(-154.405 243.952)"/>
  <path id="Trazado_44" data-name="Trazado 44" d="M134-140.243v12.757h15.531v-3.328H138.992v-7.765h7.765v-3.883h-7.765v-6.656h9.984V-153H134Z" transform="translate(-99.518 241.725)"/>
  <path id="Trazado_45" data-name="Trazado 45" d="M167-140.432v12.813h4.437v-5.547c0-5.1.111-5.547,1.054-5.547.777,0,2.108,1.664,4.6,5.824l3.494,5.824h2.33a4.663,4.663,0,0,0,2.662-.555c.222-.333-1.22-3.106-3.162-6.157l-3.494-5.6,2.052-2.108c1.775-1.775,2.108-2.441,2.108-4.548,0-4.77-2.607-6.545-10.594-6.933L167-153.3Z" transform="translate(-114.214 241.859)"/>
  <path id="Trazado_46" data-name="Trazado 46" d="M205-140.243v12.757h4.992V-153H205Z" transform="translate(-131.137 241.725)"/>
  <path id="Trazado_47" data-name="Trazado 47" d="M219-140.243v12.757h16.085v-3.328H223.992v-7.765h7.765v-3.883h-7.765v-6.656h10.539V-153H219Z" transform="translate(-137.371 241.725)"/>
</svg>
